<svg xmlns="http://www.w3.org/2000/svg" xml:space="preserve" width="48" height="48" viewBox="0 0 48 48" id="backpack">
  <g id="Expanded">
    <path fill="#ffffff" d="M36 24h-4v-2h4a1 1 0 0 0 1-1V9c0-1.654-1.346-3-3-3H12c-1.654 0-3 1.346-3 3v12a1 1 0 0 0 1 1h4v2h-4c-1.654 0-3-1.346-3-3V9c0-2.757 2.243-5 5-5h22c2.757 0 5 2.243 5 5v12c0 1.654-1.346 3-3 3z"></path>
    <path fill="#ffffff" d="M33 6h-6a1 1 0 0 1-1-1V1a1 1 0 0 1 1-1h6a1 1 0 0 1 1 1v4a1 1 0 0 1-1 1zm-5-2h4V2h-4v2zM19 6h-6a1 1 0 0 1-1-1V1a1 1 0 0 1 1-1h6a1 1 0 0 1 1 1v4a1 1 0 0 1-1 1zm-5-2h4V2h-4v2zM10 40H4a1 1 0 0 1-1-1v-3c0-2.206 1.794-4 4-4h3a1 1 0 0 1 1 1v6a1 1 0 0 1-1 1zm-5-2h4v-4H7c-1.103 0-2 .897-2 2v2z"></path>
    <path fill="#ffffff" d="M10 48H6c-1.654 0-3-1.346-3-3v-6a1 1 0 0 1 1-1h6a1 1 0 0 1 1 1v8a1 1 0 0 1-1 1zm-5-8v5a1 1 0 0 0 1 1h3v-6H5zM42 40h-6a1 1 0 0 1-1-1v-6a1 1 0 0 1 1-1h3c2.206 0 4 1.794 4 4v3a1 1 0 0 1-1 1zm-5-2h4v-2c0-1.103-.897-2-2-2h-2v4z"></path>
    <path fill="#ffffff" d="M40 48h-4a1 1 0 0 1-1-1v-8a1 1 0 0 1 1-1h6a1 1 0 0 1 1 1v6c0 1.654-1.346 3-3 3zm-3-2h3a1 1 0 0 0 1-1v-5h-4v6zM32 40H14a1 1 0 0 1-1-1v-3c0-2.206 1.794-4 4-4h12c2.206 0 4 1.794 4 4v3a1 1 0 0 1-1 1zm-17-2h16v-2c0-1.103-.897-2-2-2H17c-1.103 0-2 .897-2 2v2zM16 29c-1.654 0-3-1.346-3-3v-5c0-1.654 1.346-3 3-3s3 1.346 3 3v5c0 1.654-1.346 3-3 3zm0-9a1 1 0 0 0-1 1v5a1 1 0 0 0 2 0v-5a1 1 0 0 0-1-1zM30 29c-1.654 0-3-1.346-3-3v-5c0-1.654 1.346-3 3-3s3 1.346 3 3v5c0 1.654-1.346 3-3 3zm0-9a1 1 0 0 0-1 1v5a1 1 0 0 0 2 0v-5a1 1 0 0 0-1-1zM34 10H12a1 1 0 1 1 0-2h22a1 1 0 1 1 0 2z"></path>
    <path fill="#ffffff" d="M14 12a1 1 0 0 1-1-1V9a1 1 0 1 1 2 0v2a1 1 0 0 1-1 1zM18 42a1 1 0 0 1-1-1v-4a1 1 0 1 1 2 0v4a1 1 0 0 1-1 1zM28 42a1 1 0 0 1-1-1v-4a1 1 0 1 1 2 0v4a1 1 0 0 1-1 1zM18 22h10v2H18zM10 34a1 1 0 0 1-1-1V23a1 1 0 1 1 2 0v10a1 1 0 0 1-1 1zM36 34a1 1 0 0 1-1-1V23a1 1 0 1 1 2 0v10a1 1 0 0 1-1 1zM36 48H10a1 1 0 1 1 0-2h26a1 1 0 1 1 0 2z"></path>
    <path fill="#ffffff" d="M32 48a1 1 0 0 1-1-1v-7H15v7a1 1 0 1 1-2 0v-8a1 1 0 0 1 1-1h18a1 1 0 0 1 1 1v8a1 1 0 0 1-1 1z"></path>
  </g>
</svg>