<svg xmlns="http://www.w3.org/2000/svg" viewBox="0 0 128 128" id="direction-board">
  <path fill="#ffffff" d="M66.48,26.4A1.5,1.5,0,0,0,65,24.9H26.77a1.5,1.5,0,0,0,0,3H65A1.5,1.5,0,0,0,66.48,26.4Z"></path>
  <path fill="#ffffff" d="M120.57,53.31l-8.38-6.91a4.53,4.53,0,0,0-2.86-1H70.5V37.8H75a4.51,4.51,0,0,0,4.5-4.5V19.49A4.51,4.51,0,0,0,75,15H70.5V10.3c0-1.71-3-4.5-6.5-4.5-3.22,0-6.5,2.62-6.5,4.5V15H18.67a4.58,4.58,0,0,0-2.87,1L7.43,22.92a4.52,4.52,0,0,0,0,7l8.38,6.91a4.53,4.53,0,0,0,2.86,1H57.5v7.58H53a4.51,4.51,0,0,0-4.5,4.5V63.69a4.51,4.51,0,0,0,4.5,4.5H57.5v34H45.27a4.51,4.51,0,0,0-4.5,4.5v4.5H34.18a4.51,4.51,0,0,0-4.5,4.5v5a1.5,1.5,0,0,0,1.5,1.5H96.82a1.5,1.5,0,0,0,1.5-1.5v-5a4.51,4.51,0,0,0-4.5-4.5H87.23v-4.5a4.51,4.51,0,0,0-4.5-4.5H70.5v-34h38.83a4.58,4.58,0,0,0,2.87-1l8.37-6.91h0A4.51,4.51,0,0,0,120.57,53.31ZM60.5,10.53A4.79,4.79,0,0,1,64,8.8a4.85,4.85,0,0,1,3.5,1.73V15h-7ZM17.71,34.46,9.35,27.55a1.5,1.5,0,0,1,0-2.31l8.37-6.91a1.52,1.52,0,0,1,1-.34H75a1.5,1.5,0,0,1,1.5,1.5V33.3A1.5,1.5,0,0,1,75,34.8H18.67A1.52,1.52,0,0,1,17.71,34.46ZM60.5,37.8h7v7.58h-7Zm34.82,77.9v3.5H32.68v-3.5a1.5,1.5,0,0,1,1.5-1.5H93.82A1.5,1.5,0,0,1,95.32,115.7Zm-11.09-9v4.5H43.77v-4.5a1.5,1.5,0,0,1,1.5-1.5H82.73A1.5,1.5,0,0,1,84.23,106.7ZM67.5,102.2h-7v-34h7Zm51.15-44.26-8.36,6.91a1.52,1.52,0,0,1-1,.34H53a1.5,1.5,0,0,1-1.5-1.5V49.88a1.5,1.5,0,0,1,1.5-1.5h56.31a1.52,1.52,0,0,1,1,.34l8.36,6.9A1.5,1.5,0,0,1,118.65,57.94Z"></path>
  <path fill="#ffffff" d="M101.23,55.29H63a1.5,1.5,0,0,0,0,3h38.21a1.5,1.5,0,0,0,0-3Z"></path>
</svg>