<svg xmlns="http://www.w3.org/2000/svg" width="64" height="64" enable-background="new 0 0 64 64" viewBox="0 0 64 64" id="female-tour-guide">

  <g>
    <path fill="#ffffff" d="M1 54.086c-.553 0-1-.447-1-1 0-3.861 3.141-7.002 7.002-7.002.553 0 1 .447 1 1s-.447 1-1 1C4.244 48.084 2 50.328 2 53.086 2 53.639 1.553 54.086 1 54.086zM41 54.086c-.553 0-1-.447-1-1 0-2.757-2.243-5-5-5-.553 0-1-.447-1-1s.447-1 1-1c3.859 0 7 3.141 7 7C42 53.639 41.553 54.086 41 54.086z"></path>
    <path fill="#ffffff" d="M15 48.086L15 48.086l-7.998-.002c-.553 0-1-.448-1-1 0-.553.448-1 1-1l0 0L15 46.086c.553 0 1 .448 1 1C16 47.639 15.552 48.086 15 48.086zM35 48.086L35 48.086l-8-.002c-.553 0-1-.448-1-1 0-.553.448-1 1-1l0 0 8 .002c.553 0 1 .448 1 1C36 47.639 35.552 48.086 35 48.086zM1.002 64.082c-.552 0-1-.447-1-1L0 53.086c0-.552.447-1 1-1 .552 0 1 .447 1 1l.002 9.996C2.002 63.634 1.555 64.082 1.002 64.082zM41 64.082c-.553 0-1-.447-1-1v-9.996c0-.553.447-1 1-1s1 .447 1 1v9.996C42 63.635 41.553 64.082 41 64.082z"></path>
    <path fill="#ffffff" d="M15 48.086c-.553 0-1-.447-1-1v-5.25c0-.553.447-1 1-1s1 .447 1 1v5.25C16 47.639 15.553 48.086 15 48.086zM27 48.084c-.553 0-1-.447-1-1v-5.248c0-.553.447-1 1-1s1 .447 1 1v5.248C28 47.637 27.553 48.084 27 48.084z"></path>
    <path fill="#ffffff" d="M21 44.084c-8.822 0-16-7.178-16-16 0-.552.447-1 1-1s1 .448 1 1c0 7.719 6.28 14 14 14s14-6.28 14-14c0-.552.447-1 1-1s1 .448 1 1C37 36.906 29.822 44.084 21 44.084zM37 22.083c-.553 0-1-.448-1-1 0-8.271-6.729-15-15-15s-15 6.729-15 15c0 .552-.447 1-1 1s-1-.448-1-1c0-9.374 7.626-17 17-17s17 7.626 17 17C38 21.636 37.553 22.083 37 22.083z"></path>
    <path fill="#ffffff" d="M37 29.083c-.553 0-1-.448-1-1v-7c0-.552.447-1 1-1s1 .448 1 1v7C38 28.636 37.553 29.083 37 29.083zM5 29.084c-.553 0-1-.448-1-1v-7.001c0-.552.447-1 1-1s1 .448 1 1v7.001C6 28.637 5.553 29.084 5 29.084zM29 21.082c-4.963 0-9-4.037-9-8.999 0-.552.447-1 1-1s1 .448 1 1c0 3.859 3.141 6.999 7 6.999.553 0 1 .448 1 1S29.553 21.082 29 21.082z"></path>
    <path fill="#ffffff" d="M21 13.083c-.553 0-1-.448-1-1V5.083c0-.552.447-1 1-1s1 .448 1 1v6.999C22 12.635 21.553 13.083 21 13.083zM37.031 29.084c-2.757 0-5-2.244-5-5.001 0-.552.447-1 1-1s1 .448 1 1c0 1.655 1.346 3.001 3 3.001.553 0 1 .448 1 1S37.584 29.084 37.031 29.084z"></path>
    <path fill="#ffffff" d="M33 25.083c-.553 0-1-.448-1-1 0-1.654-1.346-3-3-3-.553 0-1-.448-1-1s.447-1 1-1c2.757 0 5 2.243 5 5C34 24.636 33.553 25.083 33 25.083zM13.016 21.082c-.553 0-1-.448-1-1s.447-1 1-1c3.859 0 7-3.14 7-6.999 0-.552.447-1 1-1s1 .448 1 1C22.016 17.044 17.979 21.082 13.016 21.082zM4.984 29.084c-.553 0-1-.448-1-1s.447-1 1-1c1.654 0 3-1.346 3-3.001 0-.552.447-1 1-1s1 .448 1 1C9.984 26.841 7.741 29.084 4.984 29.084z"></path>
    <path fill="#ffffff" d="M9.016 25.083c-.553 0-1-.448-1-1 0-2.757 2.243-5 5-5 .553 0 1 .448 1 1s-.447 1-1 1c-1.654 0-3 1.346-3 3C10.016 24.636 9.568 25.083 9.016 25.083zM6 29.084c-.553 0-1-.448-1-1v-.131c0-.552.447-1 1-1s1 .448 1 1v.131C7 28.637 6.553 29.084 6 29.084zM36 29.084c-.553 0-1-.448-1-1V27.95c0-.552.447-1 1-1s1 .448 1 1v.135C37 28.637 36.553 29.084 36 29.084zM28.784 8.102c-.455 0-.866-.313-.974-.775-.735-3.185-3.536-5.41-6.811-5.41-3.275 0-6.077 2.224-6.813 5.409-.125.538-.655.875-1.2.749-.538-.124-.873-.661-.749-1.199.947-4.097 4.55-6.958 8.762-6.958 4.211 0 7.813 2.862 8.76 6.959.124.538-.212 1.075-.75 1.199C28.935 8.094 28.858 8.102 28.784 8.102zM21 54.086c-10.416 0-14.655-6.185-14.83-6.447-.307-.46-.182-1.081.277-1.387.46-.305 1.078-.183 1.385.274.157.232 3.879 5.56 13.168 5.56 9.356 0 13.131-5.499 13.168-5.555.305-.46.926-.583 1.387-.277.46.307.584.927.277 1.387C35.656 47.904 31.415 54.086 21 54.086zM36.002 64.082h-9c-.553 0-1-.447-1-1v-5c0-.553.447-1 1-1h9c.553 0 1 .447 1 1v5C37.002 63.635 36.555 64.082 36.002 64.082zM28.002 62.082h7v-3h-7V62.082z"></path>
    <path fill="#ffffff" d="M33.002,59.082h-3c-0.553,0-1-0.447-1-1v-3c0-0.553,0.447-1,1-1h3c0.553,0,1,0.447,1,1v3
			C34.002,58.635,33.555,59.082,33.002,59.082z M31.002,57.082h1v-1h-1V57.082z"></path>
    <g>
      <path fill="#ffffff" d="M43.998,64.082c-0.553,0-1-0.447-1-1V31.083h-1v31.999c0,0.553-0.447,1-1,1s-1-0.447-1-1V30.083c0-0.552,0.447-1,1-1h3
			c0.553,0,1,0.448,1,1v32.999C44.998,63.635,44.551,64.082,43.998,64.082z"></path>
    </g>
    <g>
      <path fill="#ffffff" d="M54.998,43.086h-11c-0.553,0-1-0.447-1-1V32.083c0-0.552,0.447-1,1-1h11c0.553,0,1,0.448,1,1v10.002
			C55.998,42.639,55.551,43.086,54.998,43.086z M44.998,41.086h9v-8.002h-9V41.086z"></path>
    </g>
    <g>
      <path fill="#ffffff" d="M63,48.088H51c-0.553,0-1-0.447-1-1s0.447-1,1-1h10.522l-1.453-3.631c-0.095-0.238-0.095-0.504,0-0.742l2.002-5.002
			c0.206-0.515,0.791-0.763,1.3-0.558c0.514,0.205,0.763,0.787,0.558,1.301l-1.854,4.63l1.854,4.63
			c0.123,0.309,0.085,0.658-0.101,0.933S63.332,48.088,63,48.088z"></path>
    </g>
    <g>
      <path fill="#ffffff" d="M50.999,48.088c-0.219,0-0.439-0.071-0.624-0.219c-0.431-0.345-0.501-0.975-0.156-1.406l4-5.002
			c0.347-0.429,0.975-0.501,1.406-0.156c0.431,0.345,0.501,0.975,0.156,1.406l-4,5.002C51.583,47.959,51.293,48.088,50.999,48.088z"></path>
    </g>
    <g>
      <path fill="#ffffff" d="M63,38.084h-8.002c-0.553,0-1-0.447-1-1s0.447-1,1-1H63c0.553,0,1,0.447,1,1S63.553,38.084,63,38.084z"></path>
    </g>
  </g>
</svg>