<svg xmlns="http://www.w3.org/2000/svg" viewBox="0 0 100 100" id="adventure">
  <path fill="#ffffff" d="M98,84H2a2,2,0,0,1,0-4H98a2,2,0,0,1,0,4Z"></path>
  <path fill="#ffffff" d="M66,84H10a2,2,0,0,1-1.63-3.16l20-28a2,2,0,0,1,3.26,0L43.92,70.05l6.44-9.2a2,2,0,0,1,3.28,0l14,20A2,2,0,0,1,66,84ZM13.89,80H62.16L52,65.49l-6.42,9.17a2,2,0,0,1-1.63.86h0a2,2,0,0,1-1.63-.84L30,57.44Z"></path>
  <path fill="#ffffff" d="M90,84a2,2,0,0,1-1.66-.89L58,37.61,39.25,65.73a2,2,0,1,1-3.33-2.22L56.34,32.89a2,2,0,0,1,3.32,0l32,48A2,2,0,0,1,90,84Z"></path>
  <path fill="#ffffff" d="M58,36a2,2,0,0,1-2-2V18a2,2,0,0,1,4,0V34A2,2,0,0,1,58,36Z"></path>
  <path fill="#ffffff" d="M70.43 31.58a26.35 26.35 0 01-13.54-3.92A2 2 0 0156 26V18a2 2 0 013.11-1.66c.44.29 11.07 7.13 21.78 0A2 2 0 0184 18v8a2 2 0 01-.89 1.66A22.49 22.49 0 0170.43 31.58zM60 24.86c2.73 1.49 11.25 5.26 20 0V21.43c-8.18 3.87-15.88 1.69-20-.12zM64.32 55.56c-2 0-4.18-1-6.46-3a7.4 7.4 0 01-7-.09A15.2 15.2 0 0147 49.81 2 2 0 0149.81 47c.17.16 4.24 4.13 6.78 1.6a2 2 0 012.82 0c2.18 2.17 4.08 3.2 5.35 2.92s2-2.14 2-2.16a2 2 0 012.54-1.23 2 2 0 011.25 2.51c-.13.4-1.4 3.95-4.87 4.77A6.33 6.33 0 0164.32 55.56zM26 48H10a2 2 0 01-2-2 10 10 0 0120 0A2 2 0 0126 48zM12.34 44H23.66a6 6 0 00-11.32 0zM46 32H22a2 2 0 01-2-2 10 10 0 0116.8-7.33A7.91 7.91 0 0140 22a8 8 0 018 8A2 2 0 0146 32zM24.34 28H43.46A4 4 0 0040 26a4 4 0 00-2.4.81 2 2 0 01-1.48.38 2 2 0 01-1.32-.78A6 6 0 0024.34 28z"></path>
  <path fill="#ffffff" d="M50 32H18a2 2 0 010-4H50a2 2 0 010 4zM30 48H6a2 2 0 010-4H30a2 2 0 010 4z"></path>
</svg>