<svg xmlns="http://www.w3.org/2000/svg" enable-background="new 0 0 1024 1024" viewBox="0 0 1024 1024" id="camping">
  <path fill="#ffffff" d="M296.88,874.4c-2.14,0-4.23-0.69-5.95-1.95c-45.52-33.6-100-60.39-157.56-77.46c-2.76-0.82-5.04-2.79-6.24-5.41
			c-1.2-2.62-1.22-5.63-0.05-8.26c30.12-67.46,60.35-122.93,92.42-169.58c54.07-78.63,112.35-130.48,178.17-158.53
			c37.38-15.93,77.63-24.01,119.64-24.01c3.97,0,8,0.07,11.95,0.22c5.33,0.19,9.57,4.54,9.64,9.87c0.06,5.33-4.07,9.78-9.4,10.1
			c-45.68,2.75-89.81,35.19-127.63,93.81c-14.61,22.64-28.03,48.88-39.89,77.98c-28.29,69.34-47.36,153.74-55.14,244.07
			C306.4,870.43,302.08,874.4,296.88,874.4z M149.99,779.18c49.88,15.93,97.28,38.88,138.57,67.06
			c8.81-85.8,27.69-165.89,54.91-232.6c12.33-30.25,26.32-57.6,41.61-81.27c21.68-33.61,45.58-59.37,70.94-76.75
			c-17.36,3.73-34.23,9.07-50.5,16c-62.22,26.52-117.68,76.06-169.53,151.47C206.25,666.32,178.06,717.48,149.99,779.18z"></path>
  <path fill="#ffffff" d="M563.78 452.59c-.48 0-.97-.03-1.46-.11-11.16-1.63-22.53-2.67-33.79-3.08-5.33-.19-9.57-4.54-9.63-9.87-.06-5.33 4.07-9.78 9.39-10.1 12.52-.76 25.39.4 37.85 3.45 5.19 1.27 8.46 6.39 7.44 11.63C572.66 449.26 568.49 452.59 563.78 452.59zM423.23 794.22c-4.85 0-9.1-3.53-9.87-8.46-7.58-48.55-13.99-100.08-2.07-149.38 6.15-25.41 17.56-49.07 33.01-68.44 16.83-21.1 37.81-36.05 60.66-43.23 28.72-9.03 62.03-6.85 98.99 6.48 2.32.84 4.44 1.64 6.51 2.45 46.05 18.03 88.01 48.89 121.33 89.24 33.28 40.3 56.27 88.05 66.49 138.09.61 3-.18 6.11-2.16 8.45-1.98 2.34-4.91 3.65-7.97 3.54-43.62-1.46-88.38-1.39-133.03.22-74.35 2.66-151.89 9.71-230.46 20.94C424.18 794.19 423.7 794.22 423.23 794.22zM541.89 539.26c-10.98 0-21.31 1.51-30.93 4.53-37.27 11.72-68.76 49.9-80.22 97.29-10.3 42.56-5.66 88.2.89 131.86 75.91-10.53 150.81-17.17 222.77-19.74 40.71-1.47 81.5-1.67 121.47-.61-22.65-89.89-89.3-167.67-172.7-200.32-1.91-.75-3.87-1.49-6-2.26C577.3 542.84 558.82 539.26 541.89 539.26zM227.75 627.41H120.06c-3.4 0-6.56-1.72-8.4-4.58-1.84-2.85-2.11-6.45-.71-9.54l54.4-120.31h-27.98c-3.49 0-6.72-1.82-8.54-4.79-1.82-2.98-1.95-6.69-.35-9.79l69.33-134.61h-20.08c-3.55 0-6.83-1.88-8.62-4.93-1.8-3.06-1.84-6.84-.11-9.93l97.05-174.19c1.77-3.17 5.11-5.13 8.74-5.13 3.63 0 6.97 1.96 8.74 5.13l97.06 174.19c1.73 3.1 1.68 6.88-.11 9.93-1.8 3.06-5.08 4.93-8.62 4.93h-20.08l58.74 114.04c1.27 2.47 1.46 5.36.52 7.97-.94 2.61-2.93 4.72-5.49 5.81-62.22 26.52-117.68 76.06-169.53 151.47C234.12 625.79 231.04 627.41 227.75 627.41zM135.55 607.41h86.96c50.51-72.32 104.74-121.46 165.36-149.82l-61.41-119.22c-1.6-3.1-1.46-6.81.35-9.79s5.05-4.79 8.54-4.79h19.46l-80.04-143.64-80.03 143.64h19.46c3.49 0 6.72 1.82 8.54 4.79s1.95 6.69.35 9.79l-69.33 134.61h27.08c3.4 0 6.56 1.72 8.4 4.58 1.84 2.85 2.11 6.45.71 9.54L135.55 607.41z"></path>
  <path fill="#ffffff" d="M296.88,874.4c-2.44,0-4.81-0.89-6.66-2.54c-2.35-2.1-3.57-5.18-3.3-8.31c10.05-116.82,38.94-224.33,81.34-302.72
			c21.35-39.47,45.53-70.77,71.88-93.05c27.91-23.6,57.57-36.5,88.16-38.34c0.32-0.02,0.65-0.02,0.97-0.01
			c11.98,0.44,24.08,1.54,35.95,3.28c0.08,0.01,0.17,0.03,0.25,0.04c42.04,6.23,83.01,22.31,121.76,47.8
			c47.65,31.33,91.95,76.68,131.66,134.79c36.78,53.79,69.44,118.89,94.46,188.25c1.11,3.08,0.64,6.52-1.26,9.19
			c-1.9,2.67-4.95,4.25-8.26,4.21c-44.77-0.5-90.17,0.06-134.92,1.68c-155.87,5.6-314.02,24.29-470.06,55.55
			C298.2,874.34,297.54,874.4,296.88,874.4z M529.03,449.42c-106.58,6.9-198.48,175.2-220.96,402.57
			c152.83-29.9,307.55-47.84,460.11-53.32c40.24-1.46,81-2.07,121.36-1.82c-23.73-62.71-53.72-121.31-87.16-170.23
			c-38.23-55.95-80.67-99.48-126.14-129.37c-36.36-23.92-74.67-38.97-113.88-44.75c-0.07-0.01-0.14-0.02-0.22-0.03
			C551.21,450.86,540.07,449.84,529.03,449.42z"></path>
  <path fill="#ffffff" d="M900.67,630.97h-90.03c-3.3,0-6.39-1.63-8.26-4.36c-38.23-55.95-80.67-99.48-126.14-129.37
			c-4.27-2.81-5.74-8.39-3.4-12.94l40.46-78.56h-12.57c-3.55,0-6.83-1.88-8.62-4.93c-1.8-3.06-1.84-6.84-0.11-9.93l77.08-138.32
			c1.77-3.17,5.11-5.13,8.74-5.13h0c3.63,0,6.97,1.96,8.74,5.13l77.06,138.32c1.73,3.1,1.68,6.88-0.11,9.93
			c-1.8,3.06-5.08,4.93-8.62,4.93h-12.57l53.51,103.89c1.6,3.1,1.46,6.81-0.35,9.79c-1.82,2.98-5.05,4.79-8.54,4.79h-19.03
			l41.89,92.63c1.4,3.09,1.13,6.69-0.71,9.54C907.23,629.25,904.06,630.97,900.67,630.97z M815.89,610.97h69.28l-41.89-92.63
			c-1.4-3.09-1.13-6.69,0.71-9.54c1.84-2.85,5.01-4.58,8.4-4.58h18.13l-53.51-103.89c-1.6-3.1-1.46-6.81,0.35-9.79
			s5.05-4.79,8.54-4.79h11.95l-60.04-107.77l-60.06,107.77h11.95c3.49,0,6.72,1.82,8.54,4.79s1.95,6.68,0.35,9.78l-43.9,85.25
			C738.32,515.83,779.05,557.96,815.89,610.97z"></path>
</svg>