<svg xmlns="http://www.w3.org/2000/svg" enable-background="new 0 0 68 68" viewBox="0 0 68 68" id="campfire">
  <path fill="#ffffff" d="M5.85322,59.47658l2.59912,6.27881c0.43268,1.05072,1.62598,1.50464,2.62793,1.08301
		c9.26715-3.83783,16.79468-6.95526,22.91815-9.49133c24.18091,9.96033,22.9577,9.64758,23.69122,9.64758
		c0.81494,0,1.54248-0.48633,1.85156-1.23779l2.59668-6.27246c0.4408-1.04224-0.0647-2.21704-1.07813-2.63379l-12.92963-5.35645
		c10.79724-4.47205,12.39087-5.13269,12.92719-5.35498c0.49756-0.20459,0.88428-0.5918,1.08936-1.09033
		s0.20166-1.04688-0.00586-1.53711l-2.59863-6.27832c-0.31006-0.75293-1.0376-1.23926-1.85254-1.23926
		c-0.26953,0-0.53223,0.05371-0.77539,0.15625L53.0525,37.7502c2.14825-5.38446,0.98547-12.47577-3.49713-21.1452
		c-0.19189-0.37256-0.59668-0.58691-1.01318-0.53271c-0.41602,0.05225-0.75537,0.35889-0.84961,0.76758
		c-0.44727,1.94238-1.99805,6.53271-4.4458,8.30713c0.93848-4.604,1.87402-16.11133-9.56348-23.9668
		c-0.31494-0.21729-0.72607-0.23438-1.05908-0.04541c-0.33252,0.18848-0.52881,0.55078-0.50488,0.93262
		c0.00586,0.0957,0.48584,8.90527-4.6377,15.34424c-0.53271-2.63379-1.82764-6.7749-4.77588-7.56299
		c-0.30322-0.0835-0.62939-0.0127-0.87744,0.18311c-0.24756,0.19482-0.38867,0.49805-0.38037,0.81348
		c0.00098,0.03955,0.06152,4.05322-3.56299,9.28027c-2.26856,3.28027-3.62549,7.04297-3.92432,10.87793
		c-0.19739,2.42694,0.04187,4.64264,0.69379,6.62726l-3.5683-1.47784c-1.00537-0.42285-2.22119,0.08008-2.63281,1.0791
		L5.8498,43.52003c-0.4165,1.03174,0.07861,2.20801,1.09473,2.61816l12.93012,5.3562
		c-7.11475,2.94733-12.51996,5.18646-12.92181,5.35278C5.92707,57.26167,5.4286,58.42616,5.85322,59.47658z M60.29316,58.71193
		l-2.59961,6.28076c-0.00098,0.00098-0.00293,0.00195-0.00439,0.00195c-0.10083-0.04248-0.11011-0.04639-0.00928-0.00391
		L36.61201,56.2646c3.14105-1.3009,3.70551-1.53467,8.90479-3.68793L60.29316,58.71193z M15.95429,31.16212
		c0.27149-3.48633,1.5083-6.90918,3.57471-9.89795c2.59131-3.7373,3.47314-6.92334,3.77002-8.77295
		c1.60889,1.69336,2.36816,5.70801,2.52295,7.25195c0.03857,0.38281,0.29297,0.71045,0.65527,0.84131
		c0.3623,0.13135,0.76709,0.04199,1.0415-0.22754c5.43457-5.34912,6.44287-12.79883,6.59619-16.3667
		c11.27734,9.06787,6.92871,21.93457,6.72949,22.50098c-0.11621,0.33008-0.05127,0.69727,0.17041,0.96729
		c0.22168,0.26953,0.56689,0.4043,0.91504,0.35547c3.70117-0.5332,5.90674-5.08398,6.9585-8.02832
		c3.78174,8.16602,4.23389,14.59229,1.3413,19.13233l-16.23241,6.72363l-16.73975-6.93555
		C16.15742,36.59328,15.71894,34.05861,15.95429,31.16212z M7.70087,44.27638l2.61426-6.27832l21.07031,8.72656l-8.89795,3.68701
		L7.70087,44.27638z M57.69355,37.9966l2.52783,6.32422c-13.1051,5.42914-41.57117,17.2179-49.9126,20.67236
		c-0.00244,0.00098-0.00391,0.00146-0.00391,0.00146c-0.10071-0.06293-0.10461-0.06537-0.00391-0.00244l-2.59131-6.29395
		C10.12873,57.69856-4.85265,63.90211,57.69355,37.9966z"></path>
  <path fill="#ffffff" d="M19.95918 30.66652c.55438.08368 1.05798-.29608 1.14111-.83545.18408-1.18896.4873-2.38281.90234-3.54736.18555-.52002-.08594-1.09229-.60645-1.27734-.52197-.18652-1.0918.08545-1.27734.60645-.45703 1.28271-.79199 2.59912-.99512 3.9126C19.03925 30.0713 19.41328 30.58204 19.95918 30.66652zM20.69501 37.64455c.5332-.14307.84961-.69141.70654-1.2251-.25488-.9502-.4165-1.94873-.48047-2.96729-.03467-.55078-.51758-.97656-1.06055-.93555-.55127.03467-.97021.50928-.93555 1.06055.07227 1.15137.25537 2.28174.54492 3.36084C19.6125 37.4698 20.16065 37.78865 20.69501 37.64455z"></path>
</svg>